<?xml version="1.0" encoding="UTF-8"?>
<svg width="700pt" height="700pt" version="1.1" viewBox="100 200 500 100" xmlns="http://www.w3.org/2000/svg">
 <g>
  <path d="m446.24 113.77c38.555 0 70.016 31.395 70.016 69.953 0 38.555-31.461 70.016-70.016 70.016-38.555 0-69.953-31.461-69.953-70.016 0-38.555 31.398-69.953 69.953-69.953z" fill="#e80073"/>
  <path d="m446.24 271.24c-31.816 0-60.961 11.234-83.672 29.926 24.699 26.422 39.957 61.703 39.957 100.55v35.785 0.066407c0 3.0312-0.64844 5.9219-1.6406 8.6484h167.89c4.8047-0.019531 8.6953-3.9102 8.7148-8.7148v-35.785c0-72.152-58.719-130.48-131.25-130.48z" fill="#e80073"/>
  <path d="m253.76 113.77c38.555 0 70.016 31.395 70.016 69.953 0 38.555-31.461 70.016-70.016 70.016-38.555 0-69.953-31.461-69.953-70.016 0-38.555 31.395-69.953 69.953-69.953z" fill="#e80073"/>
  <path d="m253.76 271.25c-72.531 0-131.25 58.324-131.25 130.48v35.785-0.003906c0.007812 2.3242 0.9375 4.5469 2.5859 6.1797 1.6445 1.6367 3.875 2.5508 6.1992 2.543h245-0.003907c4.8086-0.019531 8.7031-3.9141 8.7227-8.7227v-35.785c0-72.152-58.719-130.48-131.25-130.48z" fill="#e80073"/>
 </g>
</svg>
